<svg width="14" height="13" viewBox="0 0 14 13" fill="none" xmlns="http://www.w3.org/2000/svg">
<path d="M2.84049 5.26331L1.9589 5.55718C0.782297 5.94938 0.193993 6.14548 0.193993 6.50586C0.193993 6.86624 0.782296 7.06234 1.9589 7.45454L2.84049 7.7484L2.8405 7.74841C3.77155 8.05876 4.23708 8.21394 4.57093 8.54778C4.90478 8.88163 5.05996 9.34717 5.37031 10.2782L5.66417 11.1598C6.05637 12.3364 6.25247 12.9247 6.61285 12.9247C6.97323 12.9247 7.16933 12.3364 7.56154 11.1598L7.8554 10.2782L7.8554 10.2782C8.16575 9.34716 8.32093 8.88163 8.65478 8.54778C8.98863 8.21393 9.45416 8.05876 10.3852 7.74841L10.3852 7.7484L11.2668 7.45454C12.4434 7.06234 13.0317 6.86624 13.0317 6.50586C13.0317 6.14548 12.4434 5.94938 11.2668 5.55718L10.3852 5.26331C9.45416 4.95296 8.98863 4.79778 8.65478 4.46393C8.32093 4.13008 8.16575 3.66456 7.8554 2.7335L7.8554 2.73349L7.56154 1.85191C7.16934 0.675302 6.97323 0.0869982 6.61285 0.0869982C6.25247 0.0869982 6.05637 0.675302 5.66417 1.85191L5.37031 2.73349C5.05996 3.66455 4.90478 4.13008 4.57093 4.46393C4.23708 4.79778 3.77155 4.95296 2.84049 5.26331Z" fill="white"/>
</svg>
