<svg width="31" height="31" viewBox="0 0 31 31" fill="none" xmlns="http://www.w3.org/2000/svg">
<path d="M27.9667 7.71657C27.0271 8.12419 26.0335 8.39365 25.0167 8.51657C26.0894 7.87572 26.8933 6.86755 27.2792 5.67907C26.2711 6.27915 25.1676 6.70194 24.0167 6.92907C23.2474 6.09479 22.2229 5.53944 21.1039 5.35013C19.985 5.16083 18.8349 5.34827 17.8339 5.88306C16.833 6.41785 16.0378 7.26973 15.5732 8.30512C15.1086 9.3405 15.0008 10.5008 15.2667 11.6041C13.2285 11.501 11.2347 10.9703 9.41499 10.0464C7.59526 9.12253 5.99023 7.82619 4.70417 6.24157C4.2531 7.02928 4.01607 7.92135 4.01667 8.82907C4.01508 9.67205 4.22195 10.5023 4.61887 11.246C5.01579 11.9897 5.59045 12.6237 6.29167 13.0916C5.47665 13.0694 4.67903 12.8507 3.96667 12.4541V12.5166C3.97278 13.6977 4.38667 14.8404 5.13832 15.7515C5.88997 16.6626 6.93324 17.2861 8.09167 17.5166C7.64574 17.6523 7.18277 17.7238 6.71667 17.7291C6.39404 17.7253 6.0722 17.696 5.75417 17.6416C6.08406 18.6576 6.72245 19.5455 7.58052 20.1818C8.43858 20.818 9.47364 21.171 10.5417 21.1916C8.73818 22.6107 6.51153 23.3851 4.21667 23.3916C3.79884 23.3929 3.38134 23.3679 2.96667 23.3166C5.30971 24.8294 8.04019 25.6325 10.8292 25.6291C12.7538 25.6491 14.6631 25.2853 16.4456 24.5592C18.228 23.833 19.848 22.7589 21.2107 21.3997C22.5734 20.0405 23.6516 18.4233 24.3824 16.6427C25.1131 14.8621 25.4817 12.9537 25.4667 11.0291C25.4667 10.8166 25.4667 10.5916 25.4667 10.3666C26.4475 9.63508 27.2935 8.73835 27.9667 7.71657V7.71657Z" fill="#321FFF"/>
</svg>
