<svg width="26" height="21" viewBox="0 0 26 21" fill="none" xmlns="http://www.w3.org/2000/svg">
<path d="M25.9667 2.71657C25.0271 3.12419 24.0335 3.39365 23.0167 3.51657C24.0894 2.87572 24.8933 1.86755 25.2792 0.679071C24.2711 1.27915 23.1676 1.70194 22.0167 1.92907C21.2474 1.09479 20.2229 0.539441 19.1039 0.350135C17.985 0.160829 16.8349 0.348269 15.8339 0.883057C14.833 1.41785 14.0378 2.26973 13.5732 3.30512C13.1086 4.3405 13.0008 5.50081 13.2667 6.60407C11.2285 6.50098 9.23473 5.97026 7.41499 5.0464C5.59526 4.12253 3.99023 2.82619 2.70417 1.24157C2.2531 2.02928 2.01607 2.92135 2.01667 3.82907C2.01508 4.67205 2.22195 5.50234 2.61887 6.24603C3.01579 6.98971 3.59045 7.62371 4.29167 8.09157C3.47665 8.06939 2.67903 7.85069 1.96667 7.45407V7.51657C1.97278 8.69768 2.38667 9.84044 3.13832 10.7515C3.88997 11.6626 4.93324 12.2861 6.09167 12.5166C5.64574 12.6523 5.18277 12.7238 4.71667 12.7291C4.39404 12.7253 4.0722 12.696 3.75417 12.6416C4.08406 13.6576 4.72245 14.5455 5.58052 15.1818C6.43858 15.818 7.47364 16.171 8.54168 16.1916C6.73818 17.6107 4.51153 18.3851 2.21667 18.3916C1.79884 18.3929 1.38134 18.3679 0.966675 18.3166C3.30971 19.8294 6.04019 20.6325 8.82917 20.6291C10.7538 20.6491 12.6631 20.2853 14.4456 19.5592C16.228 18.833 17.848 17.7589 19.2107 16.3997C20.5734 15.0405 21.6516 13.4233 22.3824 11.6427C23.1131 9.8621 23.4817 7.95373 23.4667 6.02907C23.4667 5.81657 23.4667 5.59157 23.4667 5.36657C24.4475 4.63508 25.2935 3.73835 25.9667 2.71657V2.71657Z" fill="#321FFF"/>
</svg>
